# xmcd
#
# Track frame offsets:
#  150
#  16262
#  25793
#  37823
#  58634
#  72619
#  87191
#  98901
#  114922
#  128685
#  137022
#  149875
#  162079
#  179488
#  190559
#  204368
#  214725
#  226715
#  239140
#  255072
#
# Disc length: 3579 seconds
#
# Revision: 0
# Processed by: cddbd v1.5.2PL0 Copyright (c) Steve Scherf et al.
# Submitted via: AltoMP3_Maker 3.0
#
DISCID=0c0df914
DTITLE=Various Artist - Truckers, Kickers, Cowboy Angels, Vol. 1, disc 2 (1966-68)
DYEAR=1900
DGENRE=
TTITLE0=Int'l Submarine Band - Do You Know How It Feels to Be Lonesome
TTITLE1=The Byrds - Wasn't Born to Follow
TTITLE2=Bob Dylan - I'll Be Your Baby Tonight
TTITLE3=The Band - The Weight
TTITLE4=Hearts and Flowers - She Sang Hymns out of Tune
TTITLE5=The Band - I Shall Be Released
TTITLE6=The Byrds - You Ain't Going Nowhere
TTITLE7=The Byrds - Hickory Wind
TTITLE8=The Beau Brummels - Turn Around
TTITLE9=The Beau Brummels - The Lonliest Man in Town
TTITLE10=Lovin' Spoonful - Never Goin' Back
TTITLE11=The Byrds - One Hundred Years from Now
TTITLE12=Doug Dillard and Gene Clark - Train Leaves Here This Morning
TTITLE13=The Spencers - Make up Your Mind
TTITLE14=Doug Dillard and Gene Clark - The Radio Song
TTITLE15=The Dillards - Nobody Knows
TTITLE16=The Dillards - Listen to the Sound
TTITLE17=Dennis Payne - The Conscience of You
TTITLE18=Everly Brothers - T for Texas
TTITLE19=Everly Brothers - I Wonder If I Care As Much (#2)
EXTD=
EXTT0=
EXTT1=
EXTT2=
EXTT3=
EXTT4=
EXTT5=
EXTT6=
EXTT7=
EXTT8=
EXTT9=
EXTT10=
EXTT11=
EXTT12=
EXTT13=
EXTT14=
EXTT15=
EXTT16=
EXTT17=
EXTT18=
EXTT19=
PLAYORDER=
